# xmcd
#
# Track frame offsets: 
#        150
#        25702
#        44620
#        66777
#        88612
#        109482
#        127992
#        146342
#        170352
#        179877
#
# Disc length: 2490 seconds
#
# Revision: 0
# Processed by: cddbd v1.5.2PL0 Copyright (c) Steve Scherf et al.
# Submitted via: ExactAudioCopy v0.95b4
#
DISCID=8c09b80a
DTITLE=Process And The Doo Rags - Too Sharp
DYEAR=1985
DGENRE=R&B
TTITLE0=Stomp And Shout
TTITLE1=Serious Freak
TTITLE2=Too Sharp
TTITLE3=Come Into My Life
TTITLE4=Dance The Way You Want (Party Freaks)
TTITLE5=Searching For Love
TTITLE6=Ooh Wee
TTITLE7=The Bells
TTITLE8=Daddy's Home
TTITLE9=Thin Line Between Love And Hate
EXTD=
EXTT0=
EXTT1=
EXTT2=
EXTT3=
EXTT4=
EXTT5=
EXTT6=
EXTT7=
EXTT8=
EXTT9=
PLAYORDER=
